<svg width="300" height="400" xmlns="http://www.w3.org/2000/svg">
 <!-- Created with Method Draw - http://github.com/duopixel/Method-Draw/ -->
 <defs>
  <filter height="200%" width="200%" y="-50%" x="-50%" id="svg_41_blur">
   <feGaussianBlur stdDeviation="10" in="SourceGraphic"/>
  </filter>
 </defs>
 <g>
  <title>background</title>
  <rect fill="#fff" id="canvas_background" height="402" width="302" y="-1" x="-1"/>
  <g display="none" overflow="visible" y="0" x="0" height="100%" width="100%" id="canvasGrid">
   <rect fill="url(#gridpattern)" stroke-width="0" y="0" x="0" height="100%" width="100%"/>
  </g>
 </g>
 <g>
  <title>Layer 1</title>
  <g stroke="null" id="svg_54">
   <g stroke="null" id="svg_49">
    <ellipse stroke="#0f0f00" filter="url(#svg_41_blur)" stroke-opacity="0" ry="100.883352" rx="95.418833" id="svg_41" cy="111.28764" cx="139.273527" stroke-width="1.5" fill="#ffd2a8"/>
    <ellipse stroke="#0f0f00" filter="url(#svg_41_blur)" stroke-opacity="0" ry="27.742913" rx="30.685351" id="svg_44" cy="285.311424" cx="60.248237" stroke-width="1.5" fill="#ffd2a8"/>
    <ellipse stroke="#0f0f00" filter="url(#svg_41_blur)" stroke-opacity="0" ry="27.742913" rx="30.685351" id="svg_45" cy="296.240455" cx="213.254659" stroke-width="1.5" fill="#ffd2a8"/>
    <ellipse stroke="#0f0f00" filter="url(#svg_41_blur)" stroke-opacity="0" ry="48.339935" rx="87.011888" id="svg_46" cy="244.537753" cx="146.839784" stroke-width="1.5" fill="#ffc9d7"/>
    <ellipse stroke="#0f0f00" filter="url(#svg_41_blur)" stroke-opacity="0" ry="48.339935" rx="54.645149" id="svg_48" cy="347.102498" cx="111.110274" stroke-width="1.5" fill="#f4d38b"/>
    <ellipse stroke="#0f0f00" filter="url(#svg_41_blur)" stroke-opacity="0" ry="25.641177" rx="46.238203" id="svg_50" cy="45.293118" cx="53.943041" stroke-width="1.5" fill="#efefef"/>
    <ellipse stroke="#0f0f00" filter="url(#svg_41_blur)" stroke-opacity="0" ry="25.641177" rx="46.238203" id="svg_51" cy="56.222148" cx="259.072529" stroke-width="1.5" fill="#efefef"/>
    <ellipse stroke="#0f0f00" filter="url(#svg_41_blur)" stroke-opacity="0" ry="25.641177" rx="69.357305" id="svg_52" cy="168.034533" cx="135.070068" stroke-width="1.5" fill="#efefef"/>
    <ellipse stroke="#0f0f00" filter="url(#svg_41_blur)" stroke-opacity="0" ry="25.641177" rx="69.357305" id="svg_53" cy="349.624573" cx="228.387171" stroke-width="1.5" fill="#efefef"/>
   </g>
   <g stroke="null" id="svg_43">
    <path stroke="#000" d="m235.533038,66.846658c-5.044168,-18.975745 -9.155587,-27.325636 -19.335925,-36.301426c-14.759414,-13.013056 -35.874888,-23.168095 -55.485845,-23.92594c-26.999259,-1.043363 -44.225032,6.400069 -58.848649,14.025551c-14.007566,7.304261 -19.518108,13.851005 -26.902228,21.450843c-8.62456,8.876513 -16.895812,22.705764 -26.061533,44.551738c-3.746438,8.92945 -8.234128,19.467069 -10.92903,34.651361c-3.90553,22.005615 -0.110038,37.642154 6.725557,48.676912c5.939894,9.588836 15.953545,22.086662 26.902228,35.476394c7.821939,9.565849 20.823432,16.727628 41.194011,19.800778c16.701571,2.519637 27.770169,3.067837 34.468531,2.475097c9.361245,-0.828381 18.828194,-4.344563 28.583617,-9.900389c13.108402,-7.4654 19.533219,-13.014201 24.380093,-18.150713c5.266297,-5.581004 11.865165,-15.609851 15.973249,-21.450843c3.443697,-4.896339 5.71307,-9.150538 8.406946,-14.850583c3.954713,-8.367905 5.757352,-13.237732 7.5662,-18.975745c1.571428,-4.984865 3.688814,-13.283505 5.044168,-19.800778c1.223841,-5.885003 2.614086,-12.3633 3.362779,-18.150713c0.958763,-7.411494 1.183612,-14.03318 0.840746,-21.450843c-0.420809,-9.103405 -5.884914,-26.401025 -9.247692,-37.126446l-2.522033,-8.250324l-3.362779,-6.600259" id="svg_2" stroke-width="1.5" fill="none"/>
    <path stroke="#000" d="m226.124394,25.876503c11.520108,-6.631581 12.644918,-5.080468 13.684095,-2.233c2.098265,5.749439 1.27149,7.945679 1.814466,8.587497c1.085952,1.283637 5.36817,-1.364358 7.61,-0.208827c2.113572,1.089429 2.520311,5.297199 2.652303,8.657385c0.136033,3.463593 1.107124,3.853859 2.163885,4.398572c0.747326,0.385207 2.373586,1.885234 2.931838,5.306245c0.558249,3.421037 1.07461,5.561534 2.861954,6.14403c3.99666,1.302503 7.961972,0.561707 8.168199,3.212192c0.260832,3.352641 -1.606455,9.145756 -1.746223,10.821326c-0.069884,0.837785 0.031832,4.265871 -0.489186,5.864495c-0.582534,1.787327 -2.863567,4.442477 -3.980093,7.260517c-0.309671,0.781586 -0.90772,0.767897 -3.560791,2.23382l-3.560791,2.23382l-2.58329,0.62813l-0.76785,-0.907664" id="svg_3" stroke-width="1.5" fill="none"/>
    <path stroke="#000" d="m72.438306,29.319911c-11.769725,-7.566252 -14.684576,-3.115596 -20.176671,-0.840695c-0.776709,0.321726 0.385712,-1.423662 0.840695,-2.522084c0.643452,-1.553404 -1.384909,-2.48818 -4.203473,0c-4.5448,4.012067 -4.568865,10.215268 -6.725557,11.769725c-0.682012,0.491568 -2.349624,0.938623 -3.362779,2.522084c-2.901228,4.534358 -8.13525,10.043014 -7.566252,14.291809c0.24953,1.863213 3.463478,-0.401529 7.566252,0.840695c1.137919,0.344534 0.840695,5.044168 0.840695,9.247641l0,2.522084l4.203473,2.522084l3.362779,1.681376" id="svg_4" stroke-width="1.5" fill="none"/>
    <path stroke="#000" d="m118.676536,94.894079c0,15.132503 0,20.176671 0,29.424312c0,7.566252 0.965177,12.802403 0,15.132503c-0.909966,2.196843 -1.086941,2.76833 -1.681389,3.362779c-0.5945,0.5945 -1.681389,0 -3.362779,0c-1.681389,0 -4.203499,0.840695 -5.044193,2.522084c-0.840695,1.681389 -1.681389,2.522084 -1.681389,4.203473c0,0.840695 0.582211,3.519152 1.681389,5.044168c0.695174,0.96451 1.681415,1.681389 3.362804,1.681389c3.362779,0 4.942057,0.414857 7.5662,0.840695c1.659684,0.269336 3.21459,0.408802 5.044168,0.840695c0.818271,0.193164 0.997145,0.582211 2.522135,1.681389c0.964459,0.695174 1.423649,1.226406 2.522033,1.681389c0.77676,0.321751 1.681389,0 4.203524,0c0.840643,0 2.200307,-0.064012 2.522033,-0.840695c0.455034,-1.098434 2.522135,-3.362804 3.362779,-4.203473c0.840695,-0.84072 3.215205,-1.763694 4.203524,-3.362779c0.442001,-0.715134 0.840643,-0.840695 2.522033,-0.840695c2.522135,0 5.044168,0 6.725557,0c1.681389,0 2.709424,-0.608611 5.884914,-3.362779c0.898113,-0.778966 2.067101,-2.264395 2.522033,-3.362779c0.6434,-1.553417 -3.362779,-3.362779 -5.044168,-4.203473c-1.681389,-0.840695 -3.362779,-0.840695 -4.203422,-0.840695l-1.681389,-0.840695l-0.840746,0" id="svg_6" stroke-width="1.5" fill="none"/>
    <path stroke="#000" d="m102.703313,147.85784c-12.610419,6.725557 -13.123795,9.381539 -14.291809,11.769725c-1.33175,2.722944 -2.58607,3.684504 -3.362779,3.362779c-1.098409,-0.454983 -2.801169,-4.396303 -4.203473,-7.566252c-1.226278,-2.77205 -1.927635,-3.609024 -2.522084,-4.203473c-0.594449,-0.594449 -0.840695,0.840695 -0.840695,1.681389c0,1.681389 -0.308154,5.903771 0,8.406946c0.423529,3.440311 1.942182,6.489317 4.203473,9.247641c1.921734,2.344134 3.862146,4.63475 5.884862,5.884862c2.261471,1.39766 5.782777,2.096246 8.406946,2.522084c2.489526,0.404004 5.104536,0.259561 9.247641,-0.840695c2.569445,-0.682346 5.110104,-1.504722 7.566226,-2.522084c1.736755,-0.719393 2.522135,-0.840695 3.362779,-0.840695c1.681389,0 3.362779,0 5.884914,0c2.522033,0 4.966635,0.417166 8.406946,0.840695c2.50315,0.308154 7.585083,-0.308154 10.088336,0c3.440311,0.423529 5.7827,1.255552 8.406946,1.681389c4.149134,0.673289 5.7827,0.414857 8.406946,0.840695c1.659684,0.269336 5.044168,0 6.725557,0c2.522033,0 4.101311,-0.414857 6.725557,-0.840695c3.319369,-0.538647 5.044168,0 7.5662,0c1.681389,0 5.044168,0 7.566303,0c2.522033,0 5.519265,-0.604711 8.406946,-2.522084c3.501783,-2.325149 5.35635,-5.671969 7.5662,-9.247641c1.976587,-3.198195 2.090191,-7.418063 2.522135,-9.247641c0.386328,-1.636414 -0.246246,-3.957278 -0.840746,-3.362779c-0.594449,0.594449 -3.294123,3.457039 -6.725557,5.884862c-2.474415,1.750712 -5.052326,2.68777 -6.725557,2.522084c-4.265817,-0.4224 -6.100475,-2.351395 -6.725557,-3.362779c-1.397686,-2.261445 -2.089319,-6.600407 -5.884811,-8.406946c-3.129822,-1.489714 -7.566303,-1.681389 -10.929081,-1.681389l-0.840643,0" id="svg_7" stroke-width="1.5" fill="none"/>
    <path stroke="#000" d="m66.553444,94.053384c13.451114,-5.044168 21.017366,-5.044168 27.742923,-4.203473l4.203473,1.681389l4.203473,5.884862" id="svg_8" stroke-width="1.5" fill="none"/>
    <path stroke="#000" d="m153.985711,93.21269c21.85806,-3.362779 36.990564,1.681389 46.238153,6.725557l5.884914,9.247641" id="svg_9" stroke-width="1.5" fill="none"/>
    <path stroke="#000" d="m196.020442,216.7948c15.973147,8.406946 23.963389,12.693596 36.149818,38.671953c4.516219,9.6274 5.880757,15.848433 6.725557,24.380144c0.331372,3.34641 0.055366,4.324775 -1.681389,5.044168c-2.456097,1.017362 -14.062239,4.387272 -26.902228,6.725557c-8.312173,1.513728 -13.349003,2.096246 -15.973147,2.522084c-0.829868,0.134668 -0.721548,-0.844928 -0.840746,-2.522084c-0.421374,-5.929658 -3.427996,-18.123706 -6.725557,-22.698755c-1.390348,-1.928995 -1.681389,-2.522084 -0.840643,-1.681389l0.840643,0" id="svg_10" stroke-width="1.5" fill="none"/>
    <path stroke="#000" d="m231.329565,293.298011c6.725557,11.769725 6.725557,13.451114 6.725557,15.132503c0,0.840695 -0.188469,1.599701 -0.840643,3.362779c-1.202598,3.25097 -0.582236,4.359872 -1.681389,5.884862c-0.695174,0.96451 -0.082304,3.215154 -1.681389,4.203473c-0.715186,0.442001 -1.1929,0.352102 -2.522135,1.681389c-1.329235,1.329235 -2.180706,2.953361 -4.203422,4.203473c-2.261522,1.397686 -4.895979,2.090191 -6.725557,2.522084c-2.45466,0.579466 -4.203524,0.840695 -6.725557,0.840695c-0.840746,0 -2.373946,-0.408802 -4.203524,-0.840695c-0.818169,-0.193138 -3.362779,-0.840695 -3.362779,-1.681389c0,-1.681389 -0.840695,-2.522084 -1.681389,-4.203473c-0.840695,-1.681389 -1.488251,-2.544559 -1.681389,-3.362779c-0.431892,-1.829527 -2.544507,-2.328894 -3.362779,-2.522084c-1.829578,-0.431892 -2.586019,-1.16242 -3.362779,-0.840695c-1.098383,0.454983 -1.745375,1.359715 -2.522033,1.681389c-1.098486,0.454983 -2.874289,1.329287 -4.203524,0c-1.329235,-1.329235 -1.681389,-4.203473 -1.681389,-7.566252c0,-5.044168 2.522135,-8.406946 3.362779,-9.247641l4.203524,-1.681389" id="svg_11" stroke-width="1.5" fill="none"/>
    <path stroke="#000" d="m188.454139,302.545651c-13.451114,3.362779 -19.417154,3.811508 -24.380094,5.044168c-2.580176,0.640828 -3.609068,1.927629 -4.203524,2.522084c-0.594455,0.594455 -1.086884,0.246189 -1.681389,0.840695c-0.594455,0.594455 -0.385711,1.4237 -0.840644,2.522084c-0.321717,0.776701 -0.519011,0.904688 -0.840745,1.681389c-0.454933,1.098384 -0.840644,1.681389 -0.840644,2.522084c0,0.840695 0,2.522084 0,4.203473c0,1.681389 0.158303,5.837498 0.840644,8.406946c1.100234,4.143128 2.142578,7.372858 3.362779,10.92903c1.391215,4.05467 3.347377,11.527588 4.203524,15.973198c0.476943,2.476569 0.840644,5.884862 0.840644,7.566252c0,0.840695 0.840745,1.681389 0.840745,2.522084c0,0.840695 0.840644,1.681389 0.840644,2.522084c0,1.681389 0.385711,2.264344 0.840745,3.362779c0.321734,0.776701 0.582904,1.226405 1.681389,1.681389c0.776651,0.321667 1.713975,0.436724 4.203423,0.840695c2.624245,0.425845 7.566302,0.840695 13.451114,0.840695c8.406946,0 14.306067,0.081228 19.336027,-0.840695c4.216453,-0.772817 11.783932,-1.600161 16.813893,-2.522084c4.216453,-0.772817 7.535314,-1.816237 10.92898,-2.522084c5.006606,-1.041318 7.715105,-1.971614 11.769725,-3.362779c3.556172,-1.220151 7.488773,-3.779948 10.929081,-4.203473c1.668762,-0.205449 4.229232,-0.766966 6.725557,-1.681389c4.250989,-1.557168 6.770551,-2.135751 8.406946,-2.522084c1.829587,-0.431898 4.225903,-2.328892 5.044168,-2.522084c1.829587,-0.431898 2.373853,-2.090185 4.203423,-2.522084c0.818265,-0.193192 0.840745,-0.840695 0.840745,-1.681389c0,-0.840695 0,-4.203473 0,-8.406946c0,-6.725557 -0.097437,-10.057902 -0.840745,-12.610419c-0.969136,-3.328041 -2.393643,-7.600989 -3.362779,-10.92903c-0.743258,-2.552467 -1.869856,-4.962486 -2.522033,-6.725557c-1.202597,-3.250966 -1.422977,-6.041215 -2.522134,-7.566252c-0.69517,-0.964462 -1.643625,-2.143048 -2.522033,-5.044168c-0.48725,-1.609241 -0.840745,-3.362779 -1.681389,-4.203473c-0.840695,-0.840728 -0.519011,-1.745383 -0.840745,-2.522084c-0.454933,-1.098384 -1.359655,-0.904688 -1.681389,-1.681389c-0.454933,-1.098384 -1.681389,-0.840695 -2.522033,-0.840695c-0.840745,0 -1.579278,-1.255544 -4.203524,-1.681389c-1.659683,-0.269342 -4.203423,0 -5.884812,0c-2.522134,0 -3.362779,0 -5.044168,0c-0.840745,0 -2.373953,0.408796 -4.203524,0.840695c-0.818164,0.193141 -2.522033,0.840695 -3.362779,0.840695l-0.840644,0l0.840644,-0.840695" id="svg_13" stroke-width="1.5" fill="none"/>
    <path stroke="#000" d="m201.905253,361.394275c-2.522033,-12.610419 -2.522033,-19.335976 -2.522033,-21.85806c0,-0.840695 -0.246246,-1.086889 -0.840746,-1.681389c-0.594449,-0.594449 -0.840643,-0.840695 -1.681389,-0.840695c-1.681389,0 -5.044168,-0.840695 -10.088336,-0.840695c-4.203422,0 -8.406946,0 -11.769725,0c-1.681389,0 -1.927584,0.246246 -2.522033,0.840695c-0.5945,0.5945 -1.745375,-0.321726 -2.522135,0c-1.098383,0.454983 -0.840643,1.681389 -0.840643,2.522084c0,0.840695 -0.366932,1.701452 0,5.044168c0.845723,7.704537 2.422333,12.631611 3.362779,16.813893c0.760443,3.381815 1.681389,6.725557 1.681389,8.406946c0,0.840695 0.840643,0.840695 1.681389,0.840695c0.840643,0 1.681389,0 2.522033,0c5.044168,0 10.010803,-1.257861 13.451114,-1.681389c2.503252,-0.308179 5.884914,0 7.566303,0c0.840643,0 1.681389,-0.840695 2.522033,-0.840695l0,-0.840695" id="svg_14" stroke-width="1.5" fill="none"/>
    <path stroke="#000" d="m174.488827,347.557412c5.98099,-8.114937 6.772383,-8.003457 5.382928,-5.618033c-4.225826,7.254988 -7.151562,11.055169 -6.579126,11.236067c2.06396,0.652229 5.228146,-6.392677 11.363918,-13.108745c1.751075,-1.916683 1.406212,-0.502002 0,1.872678c-4.716601,7.964977 -8.684482,12.906702 -9.569584,11.860293c-1.427166,-1.687285 4.679256,-6.367074 10.765782,-11.860293c1.631156,-1.472135 1.249714,-0.581821 -2.392396,4.369582c-6.48465,8.815744 -8.373386,11.236067 -6.579126,9.363389c2.392396,-2.496904 7.320689,-7.328635 13.158178,-13.108745c0.61365,-0.607614 -1.243545,2.458804 -5.382855,8.114937c-3.630429,4.960775 -6.579126,8.739163 -5.382928,7.490711c1.794334,-1.872678 5.819236,-11.093155 8.373386,-8.114937c0.564113,0.657754 -2.460259,2.447146 -5.382855,6.866485c-2.449928,3.704627 -2.857325,5.79032 -0.598136,3.745356c3.833945,-3.470428 11.720353,-8.995993 8.971522,-11.236067c-0.666692,-0.543302 -3.205911,4.841675 -5.98099,9.363389c-2.600876,4.237833 -4.142814,7.533421 -3.588594,6.866485c1.959373,-2.35784 4.784865,-6.866409 8.373386,-10.611841c0.598063,-0.624226 -0.91416,2.7047 -4.784792,8.114937c-2.794828,3.906517 -2.392396,3.745356 2.392396,-1.872678l5.382855,-5.618033l2.990532,-3.12113l0.598063,-0.624226" id="svg_15" stroke-width="1.5" fill="none"/>
    <path stroke="#000" d="m210.312199,365.177401c-0.840643,-14.291809 -0.840643,-16.813893 -0.840643,-18.495282c0,-1.681389 -0.840746,-3.362779 -0.840746,-4.203473c0,-0.840695 0,-1.681389 0,-2.522084c0,-0.840695 0,-1.681389 0,-2.522084c0,-0.840695 0,-1.681389 0,-2.522084l0,-0.840695l-0.840643,0l0.840643,0" id="svg_18" fill-opacity="null" stroke-opacity="null" stroke-width="1.5" fill="none"/>
    <path stroke="#000" d="m222.081975,366.85879c-0.840746,-15.132503 -0.840746,-17.654587 -0.840746,-20.176671c0,-1.681389 0,-3.362779 0,-4.203473c0,-0.840695 0,-1.681389 0,-2.522084c0,-0.840695 0,-1.681389 0,-2.522084c0,-0.840695 -0.840643,-0.840695 -0.840643,-1.681389l-0.840746,0l0,0.840695l0.840746,0" id="svg_19" fill-opacity="null" stroke-opacity="null" stroke-width="1.5" fill="none"/>
    <path stroke="#000" d="m232.170259,359.292539c-1.681389,-13.451114 -2.09014,-15.82506 -2.522033,-17.654587c-0.193138,-0.81822 0,-1.681389 -0.840746,-1.681389l0.840746,0" id="svg_20" fill-opacity="null" stroke-opacity="null" stroke-width="1.5" fill="none"/>
    <polyline stroke="#000" stroke-linecap="round" id="svg_21" points="172.48094177246094,313.8950388431549 175.84373474121094,326.50545144081116 176.6844024658203,326.50545144081116 " fill-opacity="null" stroke-opacity="null" stroke-width="1.5" fill="none"/>
    <path stroke="#000" d="m239.736562,352.566982c-1.681389,-13.451114 -2.522135,-14.291809 -2.522135,-15.132503l-0.840643,0.840695l-0.840746,2.522084" id="svg_22" fill-opacity="null" stroke-opacity="null" stroke-width="1.5" fill="none"/>
    <path stroke="#000" d="m253.187625,350.885592c-0.840643,-14.291809 -1.101975,-18.562757 -1.681389,-21.017366c-0.431892,-1.829527 -0.840643,-4.203473 -0.840643,-5.044168c0,-0.840695 -0.840746,-1.681389 -0.840746,-2.522084c0,-0.840695 -0.197192,-0.968718 -0.840643,-2.522084c-0.455034,-1.098434 -0.840746,-1.681389 -0.840746,-2.522084c0,-0.840695 -0.840643,-0.840695 -0.840643,-1.681389c0,-0.840695 -0.840746,-1.681389 -0.840746,-2.522084l0,-2.522084" id="svg_23" fill-opacity="null" stroke-opacity="null" stroke-width="1.5" fill="none"/>
    <path stroke="#000" d="m267.479434,350.885592c-1.681389,-15.973198 -2.94161,-21.818807 -3.362779,-28.583617c-0.156707,-2.517209 -0.454316,-5.089168 -0.840643,-6.725557c-0.431944,-1.829578 -1.037938,-3.490802 -1.681389,-5.044168c-0.455034,-1.098434 -1.226458,-1.423701 -1.681389,-2.522084c-0.321726,-0.776709 -0.51902,-1.745375 -0.840746,-2.522084c-0.454932,-1.098383 -0.518918,-1.745375 -0.840643,-2.522084c-0.455034,-1.098434 -1.681389,-1.681389 -1.681389,-3.362779l0,-0.840695l-0.840746,-0.840695" id="svg_24" fill-opacity="null" stroke-opacity="null" stroke-width="1.5" fill="none"/>
    <path stroke="#000" d="m67.394138,217.215147c-6.725557,15.132503 -8.406946,18.495282 -12.610419,26.902228c-3.362779,6.725557 -5.613474,13.29587 -6.725557,18.495282c-1.767106,8.262016 -0.840695,11.769725 -0.840695,14.291809c0,0.840695 0.840695,0.840695 1.681389,0.840695c1.681389,0 4.209964,-0.208942 7.566252,0c6.764811,0.421168 10.994966,1.504722 13.451114,2.522084c1.736755,0.719393 3.362779,1.681389 4.203473,1.681389c0.840695,0 1.681389,0 1.681389,-1.681389c0,-0.840695 1.249497,-1.533226 1.681389,-3.362779c0.193164,-0.818194 0,-1.681389 0.840695,-2.522084l0.840695,-0.840695l0.840695,0" id="svg_25" fill-opacity="null" stroke-opacity="null" stroke-width="1.5" fill="none"/>
    <path stroke="#000" d="m75.801085,290.355579c1.681389,13.451114 0.840695,14.291809 0,14.291809c-1.681389,0 -2.58607,0.321726 -3.362779,0c-1.098409,-0.454983 -0.58298,-2.067101 -1.681389,-2.522084c-0.776709,-0.321726 -0.840695,-0.840695 -1.681389,-0.840695c-0.840695,0 -1.359663,0.063986 -1.681389,0.840695c-0.454983,1.098434 -1.249497,1.5332 -1.681389,3.362779c-0.579466,2.454609 0.258484,5.200567 -0.840695,6.725557c-0.695174,0.96451 -1.681389,1.681389 -2.522084,1.681389c-1.681389,0 -2.522084,-0.840695 -2.522084,-1.681389c0,-2.522084 -0.840695,-4.203473 -0.840695,-5.884862c0,-1.681389 0.408802,-3.21459 0.840695,-5.044168c0.193164,-0.81822 -0.385712,-0.25774 -0.840695,0.840695c-0.321726,0.776709 -0.840695,2.522084 -0.840695,4.203473l0,0.840695" id="svg_26" fill-opacity="null" stroke-opacity="null" stroke-width="1.5" fill="none"/>
    <path stroke="#000" d="m48.058162,292.877663c-2.522084,12.610419 -2.522084,14.291809 -2.522084,16.813893c0,1.681389 -0.594449,2.76833 0,3.362779c0.594449,0.594449 0.840695,0.840695 1.681389,1.681389c0.840695,0.840695 1.681389,0.840695 2.522084,0.840695c0.840695,0 2.373921,-0.408802 4.203473,-0.840695c0.818194,-0.193138 1.681389,-1.681389 2.522084,-2.522084l1.681389,-1.681389l0.840695,-3.362779l1.681389,-1.681389" id="svg_27" fill-opacity="null" stroke-opacity="null" stroke-width="1.5" fill="none"/>
    <path stroke="#000" d="m125.402093,247.480153c-4.203524,23.53945 -6.993662,45.437969 -8.406946,61.370708c-0.598862,6.751418 -1.435195,12.856665 -0.840746,13.451114c0.5945,0.5945 1.681389,0 5.044168,0c4.203524,0 9.247692,0 14.29186,0c5.884811,0 6.467817,-0.385712 7.5662,-0.840695c0.77676,-0.321726 1.681389,0 3.362779,0l0.840746,0l0.840643,0l0.840746,0" id="svg_28" fill-opacity="null" stroke-opacity="null" stroke-width="1.5" fill="none"/>
    <path stroke="#000" d="m101.862618,318.098502c-13.451114,1.681389 -17.654587,1.681389 -21.017366,1.681389c-0.840695,0 -2.067101,0.25774 -2.522084,-0.840695c-0.643452,-1.553417 -0.840695,-4.203473 -0.840695,-5.884862l0.840695,-2.522084l3.362779,-2.522084" id="svg_29" fill-opacity="null" stroke-opacity="null" stroke-width="1.5" fill="none"/>
    <path stroke="#000" d="m80.004558,334.912394c-7.566252,13.451114 -7.566252,15.132503 -7.566252,19.335976c0,3.362779 0.93811,6.695129 1.681389,9.247641c0.969128,3.32804 0.840695,4.203473 0,4.203473c-0.840695,0 -3.474587,0.478792 -6.725557,1.681389c-1.763078,0.652226 -3.041053,0.904681 -3.362779,1.681389c-0.454983,1.098434 1.570658,1.083297 5.044168,2.522084c2.456148,1.017362 6.725557,1.681389 10.92903,1.681389c3.362779,0 5.782777,0.414857 8.406946,0.840695c2.489526,0.403979 4.942083,0.414857 7.566252,0.840695c3.319369,0.538673 5.044168,0 5.884862,0c0.840695,0 1.681389,0.840695 4.203473,0.840695c1.681389,0 2.522084,0 3.362779,0c0.84072,0 0.84072,-0.840695 0.84072,-2.522084c0,-1.681389 -0.403979,-2.554667 0,-5.044168c0.425838,-2.624195 1.581588,-5.906054 2.522033,-10.088336c1.520886,-6.763682 2.522084,-9.247641 3.362779,-11.769725c0.840695,-2.522084 1.681389,-3.362779 1.681389,-4.203473c0,-0.840695 0.840746,-0.840695 1.681389,-1.681389c0.840695,-0.840746 1.086941,-1.086941 1.681389,-1.681389c0.5945,-0.5945 1.681441,-0.000051 2.522135,0.840695c0.840643,0.840695 1.319435,1.793198 2.522033,5.044168c1.304401,3.526156 3.91315,6.544118 5.884914,13.451114c1.176736,4.122041 0.840643,8.406946 0.840643,11.769725c0,2.522084 0,4.203473 0,5.884862c0,0.840695 0,1.681389 0.840746,1.681389c0.840643,0 1.681389,0 3.362779,0c2.522033,0 10.966539,0.20063 15.973147,-0.840695c3.393668,-0.705847 5.884914,-0.840695 9.247692,-0.840695c2.522033,0 4.203422,0 5.044168,0l0.840643,0l1.681389,0.840695l3.362779,2.522084" id="svg_30" fill-opacity="null" stroke-opacity="null" stroke-width="1.5" fill="none"/>
   </g>
  </g>
 </g>
</svg>